<svg width="676" height="684" viewBox="0 0 676 684" fill="none" xmlns="http://www.w3.org/2000/svg">
<g clip-path="url(#clip0_8_143)">
<path d="M393.769 120.581C406.438 120.581 416.709 106.293 416.709 88.6667C416.709 71.0409 406.438 56.7523 393.769 56.7523C381.099 56.7523 370.829 71.0409 370.829 88.6667C370.829 106.293 381.099 120.581 393.769 120.581Z" fill="#08A045"/>
<path d="M64.4366 650.224C75.35 650.224 84.1971 639.789 84.1971 626.917C84.1971 614.044 75.35 603.609 64.4366 603.609C53.5231 603.609 44.676 614.044 44.676 626.917C44.676 639.789 53.5231 650.224 64.4366 650.224Z" fill="#0B6E4F"/>
<path d="M571.722 594.229C605.82 558.097 622.106 497.382 611.911 439.463C611.657 438.024 611.39 436.588 611.108 435.155C604.349 400.775 587.626 368.1 563.253 357.115C542.789 347.891 520.451 354.984 499.101 351.316C457.19 344.116 424.698 296.939 401.835 247.544C378.972 198.149 361.402 142.859 331.022 102.051C280.946 34.7872 199.261 20.3052 137.174 64.0891C75.0874 107.873 35.5389 205.011 37.2255 301.822C38.9122 398.632 80.223 491.19 140.217 540.298C162.256 558.338 187.746 571.118 213.114 566.646C235.126 562.765 255.126 546.311 277.034 541.426C311.479 533.746 345.704 555.412 375.496 580.659C405.288 605.907 434.064 635.833 467.919 647.537C500.791 658.902 541.517 626.235 571.722 594.229Z" fill="#0B6E4F"/>
<path d="M0 519.093C7.46369 531.396 15.5365 542.959 24.1594 553.696L651.841 554.891C660.464 544.154 668.536 532.592 676 520.288L0 519.093Z" fill="#3F3D56"/>
<path d="M425.651 408.292V510.731C425.652 512.037 426.025 513.288 426.688 514.212C427.352 515.135 428.251 515.654 429.19 515.655H538.306C539.245 515.654 540.144 515.135 540.808 514.212C541.471 513.288 541.844 512.037 541.845 510.731V408.292C541.843 406.988 541.469 405.738 540.806 404.816C540.143 403.895 539.244 403.376 538.306 403.374H429.19C428.252 403.376 427.353 403.895 426.69 404.816C426.027 405.738 425.653 406.988 425.651 408.292Z" fill="#CCCCCC"/>
<path d="M428.211 409.567V509.468C428.212 510.165 428.411 510.834 428.766 511.327C429.12 511.82 429.601 512.098 430.102 512.099H537.398C537.899 512.098 538.38 511.82 538.734 511.327C539.089 510.834 539.288 510.165 539.289 509.468V409.567C539.289 408.869 539.09 408.199 538.736 407.704C538.381 407.21 537.9 406.932 537.398 406.93H430.102C429.6 406.932 429.119 407.21 428.764 407.704C428.41 408.199 428.211 408.869 428.211 409.567Z" fill="#0B6E4F"/>
<path d="M423.369 530.71C423.569 531.058 423.823 531.34 424.112 531.532C424.401 531.725 424.718 531.823 425.039 531.821H541.877C542.196 531.821 542.512 531.721 542.8 531.529C543.088 531.338 543.342 531.06 543.544 530.714C543.745 530.369 543.888 529.966 543.964 529.534C544.039 529.102 544.044 528.652 543.978 528.217L542.164 516.231C542.089 515.743 541.927 515.288 541.694 514.908C541.46 514.529 541.162 514.237 540.826 514.059C540.583 513.926 540.324 513.858 540.063 513.858H426.845C426.584 513.858 426.325 513.926 426.082 514.059C425.746 514.237 425.448 514.529 425.214 514.908C424.98 515.288 424.819 515.743 424.743 516.231L422.93 528.217C422.865 528.651 422.871 529.101 422.947 529.532C423.023 529.963 423.167 530.366 423.369 530.71Z" fill="#CCCCCC"/>
<path d="M536.054 519.021H538.814C539.045 519.021 539.233 518.759 539.233 518.437V516.6C539.233 516.278 539.045 516.017 538.814 516.017H536.054C535.822 516.017 535.635 516.278 535.635 516.6V518.437C535.635 518.759 535.822 519.021 536.054 519.021Z" fill="#3F3D56"/>
<path d="M528.857 519.021H531.617C531.848 519.021 532.036 518.759 532.036 518.437V516.6C532.036 516.278 531.848 516.017 531.617 516.017H528.857C528.625 516.017 528.438 516.278 528.438 516.6V518.437C528.438 518.759 528.625 519.021 528.857 519.021Z" fill="#3F3D56"/>
<path d="M521.66 519.021H524.419C524.651 519.021 524.839 518.759 524.839 518.437V516.6C524.839 516.278 524.651 516.017 524.419 516.017H521.66C521.428 516.017 521.24 516.278 521.24 516.6V518.437C521.24 518.759 521.428 519.021 521.66 519.021Z" fill="#3F3D56"/>
<path d="M514.463 519.021H517.222C517.454 519.021 517.642 518.759 517.642 518.437V516.6C517.642 516.278 517.454 516.017 517.222 516.017H514.463C514.231 516.017 514.043 516.278 514.043 516.6V518.437C514.043 518.759 514.231 519.021 514.463 519.021Z" fill="#3F3D56"/>
<path d="M507.266 519.021H510.025C510.257 519.021 510.445 518.759 510.445 518.437V516.6C510.445 516.278 510.257 516.017 510.025 516.017H507.266C507.034 516.017 506.846 516.278 506.846 516.6V518.437C506.846 518.759 507.034 519.021 507.266 519.021Z" fill="#3F3D56"/>
<path d="M500.068 519.021H502.828C503.06 519.021 503.248 518.759 503.248 518.437V516.6C503.248 516.278 503.06 516.017 502.828 516.017H500.068C499.837 516.017 499.649 516.278 499.649 516.6V518.437C499.649 518.759 499.837 519.021 500.068 519.021Z" fill="#3F3D56"/>
<path d="M492.871 519.021H495.631C495.863 519.021 496.05 518.759 496.05 518.437V516.6C496.05 516.278 495.863 516.017 495.631 516.017H492.871C492.64 516.017 492.452 516.278 492.452 516.6V518.437C492.452 518.759 492.64 519.021 492.871 519.021Z" fill="#3F3D56"/>
<path d="M485.674 519.021H488.434C488.666 519.021 488.853 518.759 488.853 518.437V516.6C488.853 516.278 488.666 516.017 488.434 516.017H485.674C485.443 516.017 485.255 516.278 485.255 516.6V518.437C485.255 518.759 485.443 519.021 485.674 519.021Z" fill="#3F3D56"/>
<path d="M478.477 519.021H481.237C481.468 519.021 481.656 518.759 481.656 518.437V516.6C481.656 516.278 481.468 516.017 481.237 516.017H478.477C478.245 516.017 478.058 516.278 478.058 516.6V518.437C478.058 518.759 478.245 519.021 478.477 519.021Z" fill="#3F3D56"/>
<path d="M471.28 519.021H474.04C474.271 519.021 474.459 518.759 474.459 518.437V516.6C474.459 516.278 474.271 516.017 474.04 516.017H471.28C471.048 516.017 470.861 516.278 470.861 516.6V518.437C470.861 518.759 471.048 519.021 471.28 519.021Z" fill="#3F3D56"/>
<path d="M464.083 519.021H466.842C467.074 519.021 467.262 518.759 467.262 518.437V516.6C467.262 516.278 467.074 516.017 466.842 516.017H464.083C463.851 516.017 463.663 516.278 463.663 516.6V518.437C463.663 518.759 463.851 519.021 464.083 519.021Z" fill="#3F3D56"/>
<path d="M456.886 519.021H459.645C459.877 519.021 460.065 518.759 460.065 518.437V516.6C460.065 516.278 459.877 516.017 459.645 516.017H456.886C456.654 516.017 456.466 516.278 456.466 516.6V518.437C456.466 518.759 456.654 519.021 456.886 519.021Z" fill="#3F3D56"/>
<path d="M449.689 519.021H452.448C452.68 519.021 452.868 518.759 452.868 518.437V516.6C452.868 516.278 452.68 516.017 452.448 516.017H449.689C449.457 516.017 449.269 516.278 449.269 516.6V518.437C449.269 518.759 449.457 519.021 449.689 519.021Z" fill="#3F3D56"/>
<path d="M442.491 519.021H445.251C445.483 519.021 445.671 518.759 445.671 518.437V516.6C445.671 516.278 445.483 516.017 445.251 516.017H442.491C442.26 516.017 442.072 516.278 442.072 516.6V518.437C442.072 518.759 442.26 519.021 442.491 519.021Z" fill="#3F3D56"/>
<path d="M435.294 519.021H438.054C438.286 519.021 438.473 518.759 438.473 518.437V516.6C438.473 516.278 438.286 516.017 438.054 516.017H435.294C435.063 516.017 434.875 516.278 434.875 516.6V518.437C434.875 518.759 435.063 519.021 435.294 519.021Z" fill="#3F3D56"/>
<path d="M428.097 519.021H430.857C431.088 519.021 431.276 518.759 431.276 518.437V516.6C431.276 516.278 431.088 516.017 430.857 516.017H428.097C427.866 516.017 427.678 516.278 427.678 516.6V518.437C427.678 518.759 427.866 519.021 428.097 519.021Z" fill="#3F3D56"/>
<path d="M536.139 524.027H538.899C539.13 524.027 539.318 523.766 539.318 523.443V521.607C539.318 521.284 539.13 521.023 538.899 521.023H536.139C535.907 521.023 535.72 521.284 535.72 521.607V523.443C535.72 523.766 535.907 524.027 536.139 524.027Z" fill="#3F3D56"/>
<path d="M528.942 524.027H531.702C531.933 524.027 532.121 523.766 532.121 523.443V521.607C532.121 521.284 531.933 521.023 531.702 521.023H528.942C528.71 521.023 528.522 521.284 528.522 521.607V523.443C528.522 523.766 528.71 524.027 528.942 524.027Z" fill="#3F3D56"/>
<path d="M521.745 524.027H524.505C524.736 524.027 524.924 523.766 524.924 523.443V521.607C524.924 521.284 524.736 521.023 524.505 521.023H521.745C521.513 521.023 521.325 521.284 521.325 521.607V523.443C521.325 523.766 521.513 524.027 521.745 524.027Z" fill="#3F3D56"/>
<path d="M514.548 524.027H517.307C517.539 524.027 517.727 523.766 517.727 523.443V521.607C517.727 521.284 517.539 521.023 517.307 521.023H514.548C514.316 521.023 514.128 521.284 514.128 521.607V523.443C514.128 523.766 514.316 524.027 514.548 524.027Z" fill="#3F3D56"/>
<path d="M507.351 524.027H510.11C510.342 524.027 510.53 523.766 510.53 523.443V521.607C510.53 521.284 510.342 521.023 510.11 521.023H507.351C507.119 521.023 506.931 521.284 506.931 521.607V523.443C506.931 523.766 507.119 524.027 507.351 524.027Z" fill="#3F3D56"/>
<path d="M500.153 524.027H502.913C503.145 524.027 503.333 523.766 503.333 523.443V521.607C503.333 521.284 503.145 521.023 502.913 521.023H500.153C499.922 521.023 499.734 521.284 499.734 521.607V523.443C499.734 523.766 499.922 524.027 500.153 524.027Z" fill="#3F3D56"/>
<path d="M492.956 524.027H495.716C495.948 524.027 496.135 523.766 496.135 523.443V521.607C496.135 521.284 495.948 521.023 495.716 521.023H492.956C492.725 521.023 492.537 521.284 492.537 521.607V523.443C492.537 523.766 492.725 524.027 492.956 524.027Z" fill="#3F3D56"/>
<path d="M485.759 524.027H488.519C488.751 524.027 488.938 523.766 488.938 523.443V521.607C488.938 521.284 488.751 521.023 488.519 521.023H485.759C485.528 521.023 485.34 521.284 485.34 521.607V523.443C485.34 523.766 485.528 524.027 485.759 524.027Z" fill="#3F3D56"/>
<path d="M478.562 524.027H481.322C481.553 524.027 481.741 523.766 481.741 523.443V521.607C481.741 521.284 481.553 521.023 481.322 521.023H478.562C478.33 521.023 478.143 521.284 478.143 521.607V523.443C478.143 523.766 478.33 524.027 478.562 524.027Z" fill="#3F3D56"/>
<path d="M471.365 524.027H474.125C474.356 524.027 474.544 523.766 474.544 523.443V521.607C474.544 521.284 474.356 521.023 474.125 521.023H471.365C471.133 521.023 470.946 521.284 470.946 521.607V523.443C470.946 523.766 471.133 524.027 471.365 524.027Z" fill="#3F3D56"/>
<path d="M464.168 524.027H466.928C467.159 524.027 467.347 523.766 467.347 523.443V521.607C467.347 521.284 467.159 521.023 466.928 521.023H464.168C463.936 521.023 463.748 521.284 463.748 521.607V523.443C463.748 523.766 463.936 524.027 464.168 524.027Z" fill="#3F3D56"/>
<path d="M456.971 524.027H459.73C459.962 524.027 460.15 523.766 460.15 523.443V521.607C460.15 521.284 459.962 521.023 459.73 521.023H456.971C456.739 521.023 456.551 521.284 456.551 521.607V523.443C456.551 523.766 456.739 524.027 456.971 524.027Z" fill="#3F3D56"/>
<path d="M449.774 524.027H452.533C452.765 524.027 452.953 523.766 452.953 523.443V521.607C452.953 521.284 452.765 521.023 452.533 521.023H449.774C449.542 521.023 449.354 521.284 449.354 521.607V523.443C449.354 523.766 449.542 524.027 449.774 524.027Z" fill="#3F3D56"/>
<path d="M442.576 524.027H445.336C445.568 524.027 445.756 523.766 445.756 523.443V521.607C445.756 521.284 445.568 521.023 445.336 521.023H442.576C442.345 521.023 442.157 521.284 442.157 521.607V523.443C442.157 523.766 442.345 524.027 442.576 524.027Z" fill="#3F3D56"/>
<path d="M435.379 524.027H438.139C438.371 524.027 438.558 523.766 438.558 523.443V521.607C438.558 521.284 438.371 521.023 438.139 521.023H435.379C435.148 521.023 434.96 521.284 434.96 521.607V523.443C434.96 523.766 435.148 524.027 435.379 524.027Z" fill="#3F3D56"/>
<path d="M428.182 524.027H430.942C431.174 524.027 431.361 523.766 431.361 523.443V521.607C431.361 521.284 431.174 521.023 430.942 521.023H428.182C427.951 521.023 427.763 521.284 427.763 521.607V523.443C427.763 523.766 427.951 524.027 428.182 524.027Z" fill="#3F3D56"/>
<path d="M476.403 530.035H504.353C504.584 530.035 504.772 529.773 504.772 529.451V527.614C504.772 527.292 504.584 527.031 504.353 527.031H476.403C476.171 527.031 475.984 527.292 475.984 527.614V529.451C475.984 529.773 476.171 530.035 476.403 530.035Z" fill="#3F3D56"/>
<path d="M446.791 428.786H444.348C443.607 428.786 443.007 429.622 443.007 430.652C443.007 431.683 443.607 432.518 444.348 432.518H446.791C447.532 432.518 448.132 431.683 448.132 430.652C448.132 429.622 447.532 428.786 446.791 428.786Z" fill="white"/>
<path d="M474.733 428.786H472.29C471.55 428.786 470.949 429.622 470.949 430.652C470.949 431.683 471.55 432.518 472.29 432.518H474.733C475.474 432.518 476.075 431.683 476.075 430.652C476.075 429.622 475.474 428.786 474.733 428.786Z" fill="white"/>
<path d="M482.65 428.786H480.207C479.467 428.786 478.866 429.622 478.866 430.652C478.866 431.683 479.467 432.518 480.207 432.518H482.65C483.391 432.518 483.992 431.683 483.992 430.652C483.992 429.622 483.391 428.786 482.65 428.786Z" fill="white"/>
<path d="M467.133 428.475H451.948C451.208 428.475 450.607 429.31 450.607 430.341C450.607 431.371 451.208 432.207 451.948 432.207H467.133C467.874 432.207 468.474 431.371 468.474 430.341C468.474 429.31 467.874 428.475 467.133 428.475Z" fill="white"/>
<path d="M504.39 428.475H489.205C488.464 428.475 487.864 429.31 487.864 430.341C487.864 431.371 488.464 432.207 489.205 432.207H504.39C505.13 432.207 505.731 431.371 505.731 430.341C505.731 429.31 505.13 428.475 504.39 428.475Z" fill="white"/>
<path d="M454.242 437.209H451.799C451.059 437.209 450.458 438.044 450.458 439.075C450.458 440.105 451.059 440.94 451.799 440.94H454.242C454.983 440.94 455.584 440.105 455.584 439.075C455.584 438.044 454.983 437.209 454.242 437.209Z" fill="white"/>
<path d="M482.185 437.209H479.742C479.001 437.209 478.4 438.044 478.4 439.075C478.4 440.105 479.001 440.94 479.742 440.94H482.185C482.925 440.94 483.526 440.105 483.526 439.075C483.526 438.044 482.925 437.209 482.185 437.209Z" fill="white"/>
<path d="M490.102 437.209H487.659C486.918 437.209 486.317 438.044 486.317 439.075C486.317 440.105 486.918 440.94 487.659 440.94H490.102C490.842 440.94 491.443 440.105 491.443 439.075C491.443 438.044 490.842 437.209 490.102 437.209Z" fill="white"/>
<path d="M474.584 436.898H459.4C458.659 436.898 458.058 437.733 458.058 438.764C458.058 439.794 458.659 440.629 459.4 440.629H474.584C475.325 440.629 475.926 439.794 475.926 438.764C475.926 437.733 475.325 436.898 474.584 436.898Z" fill="white"/>
<path d="M511.841 436.898H496.656C495.915 436.898 495.315 437.733 495.315 438.764C495.315 439.794 495.915 440.629 496.656 440.629H511.841C512.581 440.629 513.182 439.794 513.182 438.764C513.182 437.733 512.581 436.898 511.841 436.898Z" fill="white"/>
<path d="M461.694 445.631H459.251C458.51 445.631 457.909 446.467 457.909 447.497C457.909 448.528 458.51 449.363 459.251 449.363H461.694C462.434 449.363 463.035 448.528 463.035 447.497C463.035 446.467 462.434 445.631 461.694 445.631Z" fill="white"/>
<path d="M489.636 445.631H487.193C486.452 445.631 485.852 446.467 485.852 447.497C485.852 448.528 486.452 449.363 487.193 449.363H489.636C490.377 449.363 490.977 448.528 490.977 447.497C490.977 446.467 490.377 445.631 489.636 445.631Z" fill="white"/>
<path d="M497.553 445.631H495.11C494.369 445.631 493.769 446.467 493.769 447.497C493.769 448.528 494.369 449.363 495.11 449.363H497.553C498.294 449.363 498.894 448.528 498.894 447.497C498.894 446.467 498.294 445.631 497.553 445.631Z" fill="white"/>
<path d="M482.036 445.32H466.851C466.11 445.32 465.51 446.156 465.51 447.186C465.51 448.217 466.11 449.052 466.851 449.052H482.036C482.776 449.052 483.377 448.217 483.377 447.186C483.377 446.156 482.776 445.32 482.036 445.32Z" fill="white"/>
<path d="M519.292 445.32H504.107C503.367 445.32 502.766 446.156 502.766 447.186C502.766 448.217 503.367 449.052 504.107 449.052H519.292C520.033 449.052 520.633 448.217 520.633 447.186C520.633 446.156 520.033 445.32 519.292 445.32Z" fill="white"/>
<path d="M469.145 454.054H466.702C465.961 454.054 465.361 454.889 465.361 455.92C465.361 456.95 465.961 457.786 466.702 457.786H469.145C469.886 457.786 470.486 456.95 470.486 455.92C470.486 454.889 469.886 454.054 469.145 454.054Z" fill="white"/>
<path d="M497.087 454.054H494.644C493.903 454.054 493.303 454.889 493.303 455.92C493.303 456.95 493.903 457.786 494.644 457.786H497.087C497.828 457.786 498.429 456.95 498.429 455.92C498.429 454.889 497.828 454.054 497.087 454.054Z" fill="white"/>
<path d="M505.004 454.054H502.561C501.82 454.054 501.22 454.889 501.22 455.92C501.22 456.95 501.82 457.786 502.561 457.786H505.004C505.745 457.786 506.346 456.95 506.346 455.92C506.346 454.889 505.745 454.054 505.004 454.054Z" fill="white"/>
<path d="M489.487 453.743H474.302C473.562 453.743 472.961 454.578 472.961 455.609C472.961 456.639 473.562 457.475 474.302 457.475H489.487C490.228 457.475 490.828 456.639 490.828 455.609C490.828 454.578 490.228 453.743 489.487 453.743Z" fill="white"/>
<path d="M474.733 487.546H472.29C471.55 487.546 470.949 488.381 470.949 489.412C470.949 490.442 471.55 491.278 472.29 491.278H474.733C475.474 491.278 476.075 490.442 476.075 489.412C476.075 488.381 475.474 487.546 474.733 487.546Z" fill="white"/>
<path d="M482.65 487.546H480.207C479.467 487.546 478.866 488.381 478.866 489.412C478.866 490.442 479.467 491.278 480.207 491.278H482.65C483.391 491.278 483.992 490.442 483.992 489.412C483.992 488.381 483.391 487.546 482.65 487.546Z" fill="white"/>
<path d="M504.39 487.857H489.205C488.464 487.857 487.864 488.692 487.864 489.723C487.864 490.753 488.464 491.589 489.205 491.589H504.39C505.13 491.589 505.731 490.753 505.731 489.723C505.731 488.692 505.13 487.857 504.39 487.857Z" fill="white"/>
<path d="M446.791 487.546H444.348C443.607 487.546 443.007 488.381 443.007 489.412C443.007 490.442 443.607 491.278 444.348 491.278H446.791C447.532 491.278 448.132 490.442 448.132 489.412C448.132 488.381 447.532 487.546 446.791 487.546Z" fill="white"/>
<path d="M467.133 487.857H451.948C451.208 487.857 450.607 488.692 450.607 489.723C450.607 490.753 451.208 491.589 451.948 491.589H467.133C467.874 491.589 468.474 490.753 468.474 489.723C468.474 488.692 467.874 487.857 467.133 487.857Z" fill="white"/>
<path d="M454.242 479.123H451.799C451.059 479.123 450.458 479.959 450.458 480.989C450.458 482.02 451.059 482.855 451.799 482.855H454.242C454.983 482.855 455.584 482.02 455.584 480.989C455.584 479.959 454.983 479.123 454.242 479.123Z" fill="white"/>
<path d="M482.185 479.123H479.742C479.001 479.123 478.4 479.959 478.4 480.989C478.4 482.02 479.001 482.855 479.742 482.855H482.185C482.925 482.855 483.526 482.02 483.526 480.989C483.526 479.959 482.925 479.123 482.185 479.123Z" fill="white"/>
<path d="M490.102 479.123H487.659C486.918 479.123 486.317 479.959 486.317 480.989C486.317 482.02 486.918 482.855 487.659 482.855H490.102C490.842 482.855 491.443 482.02 491.443 480.989C491.443 479.959 490.842 479.123 490.102 479.123Z" fill="white"/>
<path d="M474.584 479.434H459.4C458.659 479.434 458.058 480.27 458.058 481.3C458.058 482.331 458.659 483.166 459.4 483.166H474.584C475.325 483.166 475.926 482.331 475.926 481.3C475.926 480.27 475.325 479.434 474.584 479.434Z" fill="white"/>
<path d="M461.694 470.701H459.251C458.51 470.701 457.909 471.536 457.909 472.567C457.909 473.597 458.51 474.432 459.251 474.432H461.694C462.434 474.432 463.035 473.597 463.035 472.567C463.035 471.536 462.434 470.701 461.694 470.701Z" fill="white"/>
<path d="M489.636 470.701H487.193C486.452 470.701 485.852 471.536 485.852 472.567C485.852 473.597 486.452 474.432 487.193 474.432H489.636C490.377 474.432 490.977 473.597 490.977 472.567C490.977 471.536 490.377 470.701 489.636 470.701Z" fill="white"/>
<path d="M497.553 470.701H495.11C494.369 470.701 493.769 471.536 493.769 472.567C493.769 473.597 494.369 474.432 495.11 474.432H497.553C498.294 474.432 498.894 473.597 498.894 472.567C498.894 471.536 498.294 470.701 497.553 470.701Z" fill="white"/>
<path d="M482.036 471.012H466.851C466.11 471.012 465.51 471.847 465.51 472.878C465.51 473.908 466.11 474.744 466.851 474.744H482.036C482.776 474.744 483.377 473.908 483.377 472.878C483.377 471.847 482.776 471.012 482.036 471.012Z" fill="white"/>
<path d="M469.145 462.278H466.702C465.961 462.278 465.361 463.113 465.361 464.144C465.361 465.174 465.961 466.01 466.702 466.01H469.145C469.886 466.01 470.486 465.174 470.486 464.144C470.486 463.113 469.886 462.278 469.145 462.278Z" fill="white"/>
<path d="M497.087 462.278H494.644C493.903 462.278 493.303 463.113 493.303 464.144C493.303 465.174 493.903 466.01 494.644 466.01H497.087C497.828 466.01 498.429 465.174 498.429 464.144C498.429 463.113 497.828 462.278 497.087 462.278Z" fill="white"/>
<path d="M505.004 462.278H502.561C501.82 462.278 501.22 463.113 501.22 464.144C501.22 465.174 501.82 466.01 502.561 466.01H505.004C505.745 466.01 506.346 465.174 506.346 464.144C506.346 463.113 505.745 462.278 505.004 462.278Z" fill="white"/>
<path d="M489.487 462.589H474.302C473.562 462.589 472.961 463.425 472.961 464.455C472.961 465.486 473.562 466.321 474.302 466.321H489.487C490.228 466.321 490.828 465.486 490.828 464.455C490.828 463.425 490.228 462.589 489.487 462.589Z" fill="white"/>
<path d="M433.802 586.256L422.333 561.034L458.333 521.108L473.192 498.206C475.123 495.23 477.581 493.012 480.321 491.772C483.061 490.532 485.986 490.315 488.806 491.141C491.625 491.967 494.239 493.808 496.387 496.48C498.535 499.152 500.141 502.561 501.044 506.367C502.384 512.007 502.096 518.15 500.241 523.501C498.386 528.851 495.11 532.989 491.104 535.043L467.607 547.085L433.802 586.256Z" fill="#FFB6B6"/>
<path d="M164.691 403.379V525.966H226.422V403.379C226.423 402.498 226.22 401.639 225.845 400.929C225.469 400.219 224.939 399.695 224.334 399.435C224.048 399.304 223.749 399.239 223.449 399.244H167.673C167.282 399.243 166.894 399.349 166.533 399.556C166.171 399.763 165.843 400.068 165.566 400.452C165.289 400.836 165.069 401.292 164.919 401.794C164.769 402.297 164.692 402.835 164.691 403.379ZM188.782 445.5C188.798 443.084 189.5 440.774 190.734 439.073C191.968 437.372 193.635 436.417 195.372 436.417C197.109 436.417 198.776 437.372 200.01 439.073C201.244 440.774 201.945 443.084 201.961 445.5V459.724C201.953 462.147 201.254 464.467 200.02 466.176C198.785 467.886 197.114 468.845 195.372 468.845C193.63 468.845 191.959 467.886 190.724 466.176C189.489 464.467 188.791 462.147 188.782 459.724V445.5Z" fill="#CCCCCC"/>
<path d="M164.502 522.045V533.866C164.504 534.479 164.679 535.066 164.989 535.5C165.299 535.934 165.72 536.18 166.161 536.185H224.953C225.393 536.182 225.815 535.936 226.126 535.502C226.436 535.067 226.611 534.479 226.611 533.866V522.045H164.502Z" fill="#3F3D56"/>
<path d="M67.5811 218.687V442.512C67.5827 445.365 68.3979 448.099 69.8476 450.116C71.2974 452.133 73.2632 453.267 75.3134 453.27H313.729C315.779 453.267 317.745 452.133 319.195 450.116C320.644 448.099 321.46 445.365 321.461 442.512V218.687C321.456 215.837 320.64 213.106 319.191 211.092C317.741 209.078 315.777 207.945 313.729 207.941H75.3134C73.265 207.945 71.301 209.078 69.8517 211.092C68.4024 213.106 67.5859 215.837 67.5811 218.687Z" fill="#3F3D56"/>
<path class='telaPc' d="M73.1742 221.472V439.751C73.1761 441.275 73.6121 442.736 74.3867 443.814C75.1612 444.891 76.2113 445.498 77.3067 445.5H311.744C312.84 445.498 313.89 444.891 314.664 443.814C315.439 442.736 315.875 441.275 315.877 439.751V221.472C315.877 219.946 315.442 218.482 314.667 217.402C313.892 216.322 312.841 215.714 311.744 215.711H77.3067C76.21 215.714 75.1589 216.322 74.3842 217.402C73.6095 218.482 73.1743 219.946 73.1742 221.472Z" fill="#FBFFFF" />
<path d="M116.682 535.384C116.92 535.801 117.224 536.136 117.569 536.366C117.914 536.596 118.292 536.714 118.675 536.711H258.15C258.532 536.71 258.908 536.591 259.252 536.363C259.597 536.134 259.9 535.802 260.14 535.39C260.381 534.978 260.552 534.496 260.641 533.98C260.731 533.465 260.737 532.927 260.659 532.408L258.494 518.101C258.404 517.517 258.211 516.974 257.932 516.521C257.653 516.068 257.297 515.72 256.896 515.507C256.606 515.349 256.297 515.268 255.985 515.268H120.832C120.52 515.268 120.211 515.349 119.921 515.507C119.52 515.72 119.164 516.068 118.885 516.521C118.606 516.974 118.412 517.517 118.323 518.101L116.158 532.408C116.081 532.927 116.088 533.464 116.178 533.978C116.269 534.493 116.441 534.973 116.682 535.384Z" fill="#2F2E41"/>
<path d="M304.136 245.78H84.7738C84.5458 245.772 84.3288 245.642 84.1693 245.415C84.0099 245.188 83.9206 244.883 83.9206 244.566C83.9206 244.249 84.0099 243.944 84.1693 243.717C84.3288 243.49 84.5458 243.359 84.7738 243.352H304.136C304.364 243.359 304.581 243.49 304.74 243.717C304.9 243.944 304.989 244.249 304.989 244.566C304.989 244.883 304.9 245.188 304.74 245.415C304.581 245.642 304.364 245.772 304.136 245.78Z" fill="#3F3D56"/>
<path d="M99.706 237.156C102.529 237.156 104.818 233.901 104.818 229.885C104.818 225.869 102.529 222.614 99.706 222.614C96.8826 222.614 94.5937 225.869 94.5937 229.885C94.5937 233.901 96.8826 237.156 99.706 237.156Z" fill="#08A045"/>
<path d="M117.367 237.156C120.19 237.156 122.479 233.901 122.479 229.885C122.479 225.869 120.19 222.614 117.367 222.614C114.543 222.614 112.255 225.869 112.255 229.885C112.255 233.901 114.543 237.156 117.367 237.156Z" fill="#08A045"/>
<path d="M135.028 237.156C137.851 237.156 140.14 233.901 140.14 229.885C140.14 225.869 137.851 222.614 135.028 222.614C132.204 222.614 129.915 225.869 129.915 229.885C129.915 233.901 132.204 237.156 135.028 237.156Z" fill="#08A045"/>
<path d="M293.501 224.412H280.958C280.71 224.42 280.474 224.563 280.3 224.81C280.127 225.056 280.03 225.388 280.03 225.733C280.03 226.078 280.127 226.409 280.3 226.656C280.474 226.903 280.71 227.046 280.958 227.054H293.501C293.751 227.049 293.989 226.907 294.164 226.66C294.339 226.413 294.437 226.08 294.437 225.733C294.437 225.386 294.339 225.053 294.164 224.806C293.989 224.558 293.751 224.417 293.501 224.412Z" fill="#3F3D56"/>
<path d="M293.501 229.373H280.958C280.709 229.38 280.473 229.523 280.3 229.77C280.126 230.016 280.029 230.348 280.029 230.693C280.029 231.039 280.126 231.37 280.3 231.617C280.473 231.864 280.709 232.006 280.958 232.014H293.501C293.751 232.01 293.99 231.869 294.165 231.622C294.341 231.374 294.439 231.041 294.439 230.693C294.439 230.346 294.341 230.012 294.165 229.765C293.99 229.518 293.751 229.377 293.501 229.373Z" fill="#3F3D56"/>
<path d="M293.501 234.333H280.958C280.71 234.341 280.474 234.484 280.3 234.73C280.127 234.977 280.03 235.308 280.03 235.654C280.03 235.999 280.127 236.33 280.3 236.577C280.474 236.824 280.71 236.966 280.958 236.974H293.501C293.751 236.969 293.989 236.828 294.164 236.581C294.339 236.334 294.437 236.001 294.437 235.654C294.437 235.306 294.339 234.973 294.164 234.726C293.989 234.479 293.751 234.338 293.501 234.333Z" fill="#3F3D56"/>
<path d="M595.906 527.233C596.284 528.766 597.002 530.093 597.957 531.023C598.911 531.953 600.053 532.439 601.218 532.41L623.979 531.595C625.152 531.563 626.287 531.004 627.213 530C628.139 528.997 628.807 527.604 629.117 526.029L632.338 478.114C633.481 478.834 634.725 479.19 635.979 479.155C637.069 479.116 638.142 478.78 639.139 478.165C640.135 477.55 641.034 476.667 641.786 475.568C642.537 474.47 643.125 473.176 643.517 471.76C643.909 470.345 644.096 468.837 644.069 467.321C644.041 465.804 643.8 464.311 643.357 462.925C642.915 461.539 642.281 460.287 641.491 459.242C640.701 458.197 639.771 457.379 638.754 456.834C637.737 456.289 636.652 456.028 635.562 456.066C635.061 456.064 634.561 456.136 634.071 456.282C633.538 455.479 632.89 454.841 632.168 454.408C631.447 453.975 630.669 453.757 629.883 453.768L594.872 455.026C594.582 455.041 594.293 455.091 594.009 455.175C593.241 455.374 592.513 455.8 591.873 456.423C591.233 457.047 590.697 457.854 590.301 458.79C589.904 459.726 589.656 460.769 589.573 461.85C589.491 462.93 589.575 464.023 589.822 465.054L595.906 527.233ZM632.999 474.86L635.29 463.442C635.551 462.123 635.557 460.732 635.308 459.409C635.419 459.408 635.517 459.335 635.629 459.335C637.2 459.289 638.72 460.113 639.856 461.625C640.992 463.137 641.65 465.213 641.687 467.399C641.724 469.586 641.136 471.703 640.052 473.287C638.969 474.871 637.478 475.793 635.906 475.85C634.891 475.894 633.885 475.552 632.999 474.86Z" fill="#2F2E41"/>
<path d="M594.009 455.175C594.755 461.109 603.141 465.28 613.225 464.555C622.497 463.96 630.079 459.431 631.468 454.062C630.954 453.851 630.419 453.752 629.883 453.768L594.872 455.026C594.582 455.041 594.293 455.091 594.009 455.175Z" fill="#3F3D56"/>
<path d="M607.266 501.404C607.349 501.375 607.423 501.312 607.48 501.223C607.537 501.135 607.574 501.024 607.586 500.906C607.597 500.788 607.583 500.668 607.546 500.562C607.508 500.455 607.448 500.366 607.374 500.307L602.818 496.673L607.221 492.122C607.267 492.075 607.305 492.017 607.334 491.949C607.363 491.882 607.382 491.807 607.39 491.73C607.398 491.652 607.395 491.573 607.382 491.497C607.368 491.421 607.344 491.349 607.31 491.286C607.276 491.224 607.234 491.17 607.186 491.13C607.137 491.09 607.084 491.063 607.028 491.052C606.972 491.04 606.915 491.044 606.861 491.064C606.806 491.083 606.755 491.117 606.709 491.163L601.779 496.258C601.722 496.317 601.676 496.395 601.646 496.485C601.616 496.575 601.602 496.674 601.606 496.773C601.61 496.872 601.632 496.968 601.67 497.052C601.707 497.137 601.759 497.207 601.821 497.256L606.946 501.344C607.043 501.421 607.158 501.443 607.266 501.404Z" fill="#073B3A"/>
<path d="M220.665 311.758H182.698C181.149 311.758 179.894 313.505 179.894 315.659V320.82C179.894 322.974 181.149 324.721 182.698 324.721H220.665C222.214 324.721 223.469 322.974 223.469 320.82V315.659C223.469 313.505 222.214 311.758 220.665 311.758Z" fill="#073B3A"/>
<path d="M242.795 337.685H160.568C159.019 337.685 157.763 339.431 157.763 341.586V346.747C157.763 348.901 159.019 350.648 160.568 350.648H242.795C244.344 350.648 245.6 348.901 245.6 346.747V341.586C245.6 339.431 244.344 337.685 242.795 337.685Z" fill="#E6E6E6"/>
<path d="M242.795 363.612H160.568C159.019 363.612 157.763 365.358 157.763 367.513V372.674C157.763 374.828 159.019 376.575 160.568 376.575H242.795C244.344 376.575 245.6 374.828 245.6 372.674V367.513C245.6 365.358 244.344 363.612 242.795 363.612Z" fill="#E6E6E6"/>
<path d="M249.766 450.431L249.952 451.249L249.962 451.276L255.568 474.988L262.017 502.313L274.151 553.663L274.268 561.64V561.667L275.17 625.834L272.671 634.533L275.484 648.796C275.484 648.796 274.19 627.237 267.251 639.617C263.321 646.653 258.724 653.853 254.951 660.602C260.449 663.697 266.035 666.497 271.71 669.001C272.935 669.547 274.17 670.065 275.405 670.583C275.67 670.692 275.934 670.801 276.199 670.91C295.01 678.65 314.457 682.998 334.064 683.85C335.083 683.891 336.083 683.918 337.053 683.945C337.396 683.959 337.729 683.973 338.063 683.973C339.16 683.986 340.248 684 341.346 684C343.561 684 345.766 683.955 347.962 683.864C364.211 683.227 380.366 680.187 396.153 674.796C396.045 665.729 395.751 655.134 395.33 643.817C395.134 638.268 390.733 632.255 390.468 626.446C390.282 622.083 394.232 617.978 394.026 613.547C392.693 586.263 391.027 596.737 389.792 577.415C389.665 575.52 389.547 573.707 389.439 571.975C388.645 559.567 388.097 551.809 388.097 551.809L393.369 505.572L401.651 432.978L401.014 431.519L400.299 431.028L356.616 400.949L354.244 392.495C353.553 390.059 352.354 387.967 350.801 386.487C349.248 385.008 347.413 384.208 345.531 384.191L316.755 384.028C315.262 384.018 313.789 384.504 312.457 385.446C311.126 386.387 309.975 387.757 309.101 389.441L301.309 404.453L249.766 450.431Z" fill="#08A045"/>
<path d="M280.786 542.237L274.268 561.64L269.819 574.893L262.164 630.647L258.332 636.306L255.049 616.274L220.684 626.889C219.557 618.176 220.383 627.184 219.687 617.626C219.883 617.353 220.089 617.08 220.294 616.808C220.843 616.098 221.304 615.43 221.294 614.79C220.902 581.82 222.078 525.711 231.899 491.718C233.437 486.168 235.465 480.906 237.936 476.051C238.132 475.683 238.318 475.315 238.505 474.947C243.033 466.125 245.895 457.439 249.952 451.263V451.249C249.977 451.221 250 451.189 250.021 451.154C250.035 451.143 250.049 451.13 250.06 451.113L277.934 430.551L279.13 477.292L279.982 510.889L280.786 542.237Z" fill="#08A045"/>
<path d="M381.294 547.748L389.435 571.982L392.277 580.421L399.929 636.17L403.749 641.815L407.04 621.788L408.586 621.347L436.473 613.312L444.601 649.225C446.433 644.979 447.155 639.982 446.644 635.081C446.134 630.179 444.422 625.674 441.799 622.325C441.244 621.626 440.782 620.946 440.795 620.303C441.257 581.525 439.552 510.716 424.155 481.573C419.265 472.324 416.331 463.113 412.062 456.677C412.049 456.659 412.049 456.64 412.036 456.64L401.647 432.976L401.013 431.524L400.299 431.027L381.294 547.748Z" fill="#08A045"/>
<path d="M331.974 372.635C353.117 372.635 370.257 348.79 370.257 319.376C370.257 289.962 353.117 266.117 331.974 266.117C310.832 266.117 293.692 289.962 293.692 319.376C293.692 348.79 310.832 372.635 331.974 372.635Z" fill="#FFB6B6"/>
<path d="M249.31 238.602C250.173 235.799 251.322 233.182 252.721 230.833C259.353 219.562 271.416 214.602 283.796 227.941C286.179 227.2 288.664 227.399 290.97 228.514C292.059 229.063 293.08 229.845 293.994 230.833C295.869 232.868 297.332 235.545 298.239 238.602C298.724 240.217 299.042 241.92 299.184 243.658C302.244 241.446 305.483 239.749 308.832 238.602C317.049 235.759 325.642 235.759 333.859 238.602C336.492 239.529 339.028 240.927 341.403 242.762C345.423 245.989 347.735 250.065 348.147 254.595C353.946 255.049 359.978 259.293 364.471 266.249C364.978 267.026 365.468 267.839 365.923 268.675C369.702 275.554 371.732 283.983 371.696 292.64V294.158H370.605C367.616 294.154 364.654 294.958 361.885 296.525C360.09 297.528 358.391 298.832 356.824 300.41C355.8 301.421 354.832 302.54 353.929 303.756C351.836 306.575 350.064 309.819 348.671 313.378C345.102 322.372 343.864 332.8 345.166 342.913C345.464 345.254 345.901 347.557 346.472 349.798C347.283 352.996 348.353 356.055 349.659 358.918C349.711 359.025 349.754 359.133 349.805 359.241C350.381 360.52 350.931 361.822 351.446 363.137C351.833 364.117 352.194 365.121 352.529 366.125C353.508 368.92 354.335 371.812 355.003 374.779C356.199 380.026 356.903 385.465 357.099 390.963C357.16 392.421 357.177 393.879 357.142 395.338C357.091 399.096 356.795 402.841 356.257 406.525C356.18 407.027 356.103 407.517 356.025 408.02L355.398 411.832L353.912 420.928L352.881 427.192L351.927 433.001L350.518 430.192C350.037 429.235 348.826 426.295 347.202 422.136C346.128 419.422 344.882 416.183 343.533 412.645C341.652 407.685 339.59 402.151 337.571 396.629C336.755 394.393 335.947 392.17 335.165 389.995C333.687 385.871 332.296 381.891 331.101 378.353C330.002 375.09 329.065 372.197 328.369 369.879C328.154 371.397 327.974 372.938 327.837 374.492C327.682 376.07 327.57 377.672 327.51 379.273C327.493 379.512 327.484 379.763 327.476 380.003L327.441 380.983L327.433 381.269L326.522 381.437C321.27 382.219 315.974 382.275 310.714 381.604H310.705C303.736 380.874 296.899 378.569 290.463 374.779C286.808 372.573 283.395 369.66 280.325 366.125C278.891 364.474 277.552 362.667 276.322 360.723C276.012 360.233 275.712 359.743 275.42 359.241C273.719 356.334 272.264 353.166 271.081 349.798C270.289 347.576 269.617 345.275 269.07 342.913C265.771 329.012 265.96 311.669 269.637 291.063C268.644 290.797 267.693 290.287 266.828 289.557C264.13 287.298 262.257 282.816 261.673 277.341L260.745 277.688C257.456 275.556 254.526 272.486 252.145 268.675C251.674 267.9 251.232 267.09 250.822 266.249C246.621 257.643 246.586 247.316 249.31 238.602Z" fill="black"/>
<path d="M467.373 551.54C467.365 553.631 467.348 556.56 467.279 560.181C467.27 560.683 467.262 561.197 467.253 561.723C467.141 568.381 467.03 573.963 466.849 580.166C466.841 580.596 466.832 581.015 466.815 581.445C466.574 590.099 466.196 600.175 465.543 616.132C464.332 645.607 462.219 620.184 460.096 630.523C459.993 631.037 459.882 631.646 459.779 632.363C459.457 634.965 458.915 637.505 458.163 639.929C457.038 640.862 455.878 641.758 454.735 642.655C451.479 645.177 448.171 647.603 444.838 649.91C442.965 651.201 441.083 652.468 439.193 653.687C438.893 653.878 438.6 654.069 438.308 654.249C428.629 660.477 418.654 665.773 408.453 670.098C406.459 670.935 404.475 671.747 402.464 672.5C400.368 673.313 398.272 674.078 396.15 674.795C380.363 680.187 364.209 683.228 347.96 683.867C345.769 683.963 343.561 683.999 341.344 683.999C340.244 683.999 339.162 683.987 338.062 683.975C337.727 683.975 337.392 683.963 337.057 683.951C336.086 683.915 335.081 683.891 334.067 683.855C314.46 683.005 295.013 678.654 276.203 670.911L275.404 670.588C274.167 670.062 272.938 669.548 271.71 668.998C266.039 666.5 260.452 663.703 254.947 660.607C250.746 658.253 246.594 655.727 242.49 653.029C242.452 653.015 242.417 652.991 242.387 652.958C241.528 652.408 240.66 651.834 239.801 651.249C239.689 651.165 239.569 651.081 239.448 650.998C236.244 648.822 233.073 646.543 229.938 644.161C227.3 635.734 223.588 634.12 221.286 626.71C220.616 624.508 220.131 622.206 219.842 619.849C219.842 619.825 219.834 619.801 219.834 619.765C220.074 624.212 218.811 611.876 219.825 619.717C219.817 619.574 219.808 619.419 219.8 619.239C219.774 618.809 219.739 618.283 219.688 617.626C216.741 577.596 216.93 531.818 215.65 494.095C215.564 491.657 215.475 489.322 215.383 487.091C215.358 486.35 215.323 485.621 215.289 484.903C215.349 484.688 215.418 484.461 215.495 484.246C215.512 484.184 215.532 484.124 215.555 484.067C215.581 483.993 215.609 483.921 215.641 483.852C215.658 483.816 215.684 483.768 215.701 483.732C215.714 483.691 215.728 483.651 215.744 483.613C215.822 483.445 215.908 483.266 216.002 483.099C216.045 483.027 216.079 482.967 216.122 482.907C216.152 482.846 216.187 482.79 216.225 482.74C216.252 482.683 216.284 482.63 216.32 482.585C216.354 482.537 216.389 482.477 216.432 482.417C216.45 482.38 216.473 482.347 216.5 482.322C216.568 482.213 216.643 482.113 216.724 482.023C217.03 481.631 217.358 481.271 217.703 480.947C217.823 480.84 217.952 480.732 218.073 480.613C218.938 479.892 219.85 479.284 220.796 478.796C221.123 478.628 221.449 478.473 221.801 478.306C221.93 478.258 222.05 478.198 222.179 478.138C222.368 478.055 222.557 477.971 222.755 477.911C223.734 477.505 224.791 477.158 225.934 476.835C226.071 476.8 226.217 476.764 226.363 476.716C226.57 476.656 226.784 476.608 226.999 476.561C227.291 476.489 227.592 476.417 227.893 476.345C230.444 475.784 233.34 475.365 236.536 475.09C236.837 475.066 237.137 475.043 237.438 475.019C237.79 474.995 238.142 474.971 238.503 474.947C238.804 474.923 239.113 474.911 239.423 474.899C239.723 474.875 240.033 474.863 240.35 474.851C241.218 474.815 242.112 474.78 243.022 474.756C245.617 474.684 248.349 474.708 251.219 474.792C252.55 474.839 253.908 474.887 255.3 474.971C255.394 474.971 255.48 474.983 255.566 474.983C256.778 475.043 257.998 475.114 259.252 475.21C260.128 475.27 261.013 475.329 261.898 475.401C262.731 475.473 263.573 475.545 264.424 475.628C265.086 475.676 265.747 475.748 266.417 475.808C266.984 475.867 267.551 475.927 268.118 475.975L268.892 476.047C269.313 476.094 269.734 476.13 270.163 476.19C271.108 476.298 272.053 476.405 273.016 476.513C273.969 476.632 274.94 476.752 275.911 476.871C276.882 476.991 277.861 477.122 278.841 477.254C278.944 477.266 279.038 477.278 279.133 477.29C280.026 477.421 280.92 477.541 281.822 477.672C282.028 477.696 282.243 477.72 282.449 477.756C283.309 477.876 284.186 478.017 285.054 478.145C285.32 478.185 285.585 478.224 285.852 478.264C286.532 478.367 287.203 478.457 287.887 478.569C288.789 478.712 289.709 478.843 290.602 479.011C291.298 479.118 291.994 479.226 292.69 479.346C293.781 479.525 294.889 479.716 295.998 479.919C296.419 479.991 296.84 480.063 297.261 480.146C300.422 480.696 303.619 481.306 306.866 481.939C311.789 482.907 316.789 483.959 321.824 485.095C326.867 486.23 331.939 487.43 337.04 488.693C338.328 489.015 339.617 489.338 340.914 489.673C341.499 489.828 342.083 489.983 342.667 490.139C343.664 490.39 344.66 490.653 345.657 490.916C346.654 491.179 347.65 491.442 348.647 491.716C349.832 492.039 351.027 492.362 352.212 492.685C360.022 494.836 367.789 497.131 375.367 499.534C376.612 499.928 377.858 500.334 379.095 500.729C381.57 501.53 384.021 502.342 386.45 503.167C387.12 503.382 387.781 503.609 388.443 503.836C390.092 504.41 391.742 504.984 393.366 505.57L393.649 505.677C394.844 506.084 396.012 506.502 397.18 506.932C399.938 507.936 402.65 508.952 405.317 509.98C407.086 510.661 408.836 511.351 410.566 512.048C413.152 513.088 415.687 514.14 418.152 515.203C418.762 515.466 419.372 515.729 419.974 515.98C421.778 516.757 423.556 517.546 425.283 518.335C426.658 518.957 427.998 519.59 429.321 520.224C430.645 520.857 431.942 521.49 433.213 522.124C434.03 522.53 434.837 522.961 435.645 523.367C436.805 523.965 437.947 524.562 439.064 525.16C439.408 525.339 439.743 525.53 440.078 525.71C440.293 525.841 440.499 525.949 440.705 526.068C441.109 526.295 441.521 526.511 441.917 526.738C442.32 526.953 442.716 527.18 443.111 527.419C443.497 527.634 443.893 527.861 444.271 528.088C444.657 528.303 445.035 528.531 445.413 528.77C445.731 528.949 446.041 529.14 446.341 529.331C446.951 529.702 447.561 530.073 448.154 530.455C448.446 530.646 448.738 530.826 449.03 531.017L449.701 531.447C449.795 531.519 449.89 531.579 449.984 531.638C450.199 531.782 450.422 531.937 450.637 532.081C451.135 532.403 451.625 532.75 452.106 533.073C452.751 533.527 453.378 533.981 453.979 534.423C454.589 534.877 455.182 535.332 455.749 535.774C455.844 535.846 455.929 535.917 456.024 535.989C456.153 536.085 456.282 536.192 456.411 536.288C456.849 536.635 457.27 536.993 457.691 537.34C458.516 538.045 459.297 538.738 460.028 539.431C460.191 539.587 460.345 539.742 460.509 539.886C461.05 540.423 461.566 540.949 462.047 541.487C462.047 541.499 462.047 541.499 462.055 541.499C462.218 541.667 462.373 541.846 462.528 542.013C462.657 542.18 462.794 542.324 462.923 542.491C463.37 543.029 463.782 543.543 464.16 544.069C464.287 544.231 464.407 544.403 464.521 544.583C464.571 544.641 464.617 544.705 464.658 544.774C464.83 545.013 464.985 545.252 465.131 545.491C465.154 545.524 465.174 545.56 465.191 545.599C465.397 545.934 465.586 546.268 465.767 546.603C465.853 546.77 465.947 546.938 466.025 547.105C466.128 547.308 466.231 547.523 466.317 547.727C466.394 547.894 466.463 548.073 466.531 548.241C466.714 548.671 466.869 549.123 466.995 549.591C467.092 549.908 467.169 550.236 467.227 550.571C467.292 550.889 467.341 551.212 467.373 551.54Z" fill="#2F2E41"/>
<path opacity="0.2" d="M467.373 551.54C467.365 553.631 467.348 556.56 467.279 560.181C467.27 560.683 467.253 561.197 467.245 561.723C467.159 566.803 467.03 573.078 466.849 580.166C466.841 580.596 466.832 581.015 466.815 581.445C466.574 590.099 466.196 600.175 465.543 616.132C464.332 645.607 462.218 620.184 460.096 630.523C454.203 625.479 447.742 620.196 440.834 614.769C439.588 613.789 438.331 612.805 437.062 611.817C423.247 601.095 407.817 589.86 391.708 578.732C391.072 578.29 390.428 577.847 389.792 577.417C352.891 552.042 312.614 527.359 279.983 510.889C273.686 507.709 267.672 504.841 262.018 502.318C250.11 497.023 239.818 493.318 231.896 491.716C223.648 490.043 217.952 490.641 215.65 494.095C215.564 491.657 215.475 489.322 215.383 487.091C215.349 486.35 215.315 485.621 215.28 484.903C215.333 484.707 215.402 484.519 215.469 484.329C215.478 484.302 215.485 484.273 215.495 484.246C215.512 484.184 215.532 484.124 215.555 484.067C215.581 483.993 215.609 483.921 215.641 483.852C215.669 483.767 215.704 483.687 215.744 483.613C215.822 483.445 215.907 483.266 216.002 483.099C216.071 482.973 216.146 482.853 216.225 482.74C216.252 482.682 216.284 482.63 216.32 482.585C216.354 482.537 216.389 482.477 216.432 482.417C216.45 482.38 216.473 482.347 216.5 482.322C216.568 482.213 216.643 482.113 216.724 482.023C217.03 481.63 217.358 481.271 217.703 480.947C217.823 480.84 217.952 480.732 218.073 480.612C218.938 479.892 219.85 479.284 220.796 478.796C221.123 478.628 221.449 478.473 221.801 478.306C221.93 478.258 222.05 478.198 222.179 478.138C222.368 478.055 222.557 477.971 222.755 477.911C223.734 477.505 224.791 477.158 225.934 476.835C226.277 476.74 226.638 476.644 226.999 476.56C227.291 476.489 227.592 476.417 227.893 476.345C230.444 475.784 233.34 475.365 236.536 475.09C236.836 475.066 237.137 475.042 237.438 475.019C237.79 474.995 238.142 474.971 238.503 474.947C238.804 474.923 239.113 474.911 239.423 474.899C239.723 474.875 240.033 474.863 240.35 474.851C241.218 474.815 242.112 474.78 243.022 474.756C245.617 474.696 248.349 474.72 251.219 474.803C252.55 474.839 253.908 474.899 255.3 474.983C255.386 474.983 255.48 474.995 255.566 474.995C256.777 475.042 258.006 475.126 259.252 475.21C260.128 475.27 261.013 475.329 261.898 475.401C262.731 475.473 263.573 475.544 264.424 475.628C265.085 475.676 265.747 475.748 266.417 475.807C266.984 475.867 267.551 475.927 268.118 475.975C268.797 476.046 269.476 476.118 270.163 476.19C271.108 476.298 272.053 476.405 273.015 476.513C273.969 476.632 274.94 476.752 275.911 476.871C276.882 476.991 277.861 477.122 278.84 477.254C278.944 477.266 279.038 477.278 279.133 477.29C280.026 477.421 280.92 477.541 281.822 477.672C286.822 478.377 291.968 479.202 297.261 480.146C300.422 480.708 303.624 481.31 306.866 481.951C311.789 482.919 316.789 483.971 321.824 485.095C326.867 486.23 331.939 487.429 337.04 488.692C338.328 489.015 339.617 489.338 340.914 489.673C342.495 490.079 344.076 490.493 345.657 490.916C346.654 491.179 347.65 491.442 348.647 491.716C349.832 492.039 351.027 492.362 352.212 492.685C360.022 494.836 367.789 497.131 375.367 499.533C376.612 499.928 377.858 500.334 379.095 500.729C381.57 501.53 384.021 502.342 386.45 503.167C387.12 503.394 387.781 503.621 388.443 503.848C390.101 504.422 391.742 504.996 393.366 505.57V505.581C393.46 505.605 393.555 505.641 393.649 505.677C394.835 506.095 396.012 506.514 397.18 506.944C399.938 507.948 402.65 508.96 405.317 509.98C407.087 510.673 408.839 511.355 410.566 512.048C413.152 513.1 415.687 514.152 418.152 515.203C418.762 515.466 419.372 515.729 419.974 515.98C421.778 516.769 423.548 517.554 425.283 518.335C426.658 518.956 427.998 519.59 429.321 520.223C430.645 520.857 431.942 521.491 433.213 522.124C434.038 522.53 434.846 522.949 435.645 523.355C436.813 523.953 437.947 524.55 439.064 525.16C439.408 525.339 439.743 525.531 440.078 525.71C440.705 526.044 441.315 526.391 441.917 526.738C442.32 526.953 442.716 527.18 443.111 527.419C443.497 527.634 443.893 527.861 444.271 528.088C444.657 528.304 445.035 528.531 445.413 528.77C445.731 528.949 446.041 529.14 446.341 529.331C446.951 529.702 447.561 530.072 448.154 530.455C448.446 530.646 448.738 530.826 449.03 531.017L449.701 531.447C449.795 531.519 449.89 531.579 449.984 531.638C450.714 532.116 451.419 532.594 452.106 533.073C452.751 533.527 453.378 533.981 453.979 534.423C454.692 534.949 455.371 535.463 456.024 535.989C456.153 536.085 456.282 536.192 456.411 536.288C456.849 536.634 457.27 536.993 457.691 537.34C458.515 538.045 459.297 538.738 460.028 539.431C460.749 540.125 461.419 540.806 462.047 541.487C462.047 541.499 462.047 541.499 462.055 541.499C462.356 541.834 462.648 542.169 462.923 542.491C463.37 543.029 463.782 543.543 464.16 544.069C464.287 544.231 464.407 544.403 464.521 544.583C464.571 544.641 464.617 544.705 464.658 544.774C464.839 545.049 465.019 545.324 465.191 545.599C465.397 545.934 465.586 546.268 465.767 546.603C465.853 546.77 465.947 546.938 466.025 547.105C466.128 547.308 466.231 547.523 466.317 547.727C466.394 547.894 466.463 548.073 466.531 548.241C466.714 548.671 466.869 549.123 466.995 549.591C467.089 549.91 467.167 550.237 467.227 550.571C467.292 550.889 467.341 551.212 467.373 551.54Z" fill="black"/>
</g>
<defs>
<clipPath id="clip0_8_143">
<rect width="676" height="684" fill="white"/>
</clipPath>
</defs>
</svg>
